# xmcd CD database file
#
# Track frame offsets:
#	150
#	32761
#	72405
#	132749
#	159422
#	204442
#	230508
#	240479
#
# Disc length: 3384 seconds
#
# Revision: 0
# Processed by: cddbd v1.5.2PL0 Copyright (c) Steve Scherf et al.
# Submitted via: CDex 1.70beta2
#
DISCID=6c0d3608
DTITLE=Lindeborg - Johansen Duo - Lines
DYEAR=2005
DGENRE=Jazz
TTITLE0=Art Form Live
TTITLE1=Without Loop
TTITLE2=Mixed Doc
TTITLE3=Another Bass
TTITLE4=The Day Before
TTITLE5=1st Move
TTITLE6=2nd Move
TTITLE7=Drop Time
EXTD=YEAR: 2005
EXTT0=
EXTT1=
EXTT2=
EXTT3=
EXTT4=
EXTT5=
EXTT6=
EXTT7=
PLAYORDER=
